<svg width="72" height="11" viewBox="0 0 72 11" fill="none" xmlns="http://www.w3.org/2000/svg">
<path d="M1.066 10C0.979333 10 0.936 9.95667 0.936 9.87V1.03C0.936 0.943333 0.979333 0.899999 1.066 0.899999H3.705C4.511 0.899999 5.15233 1.12967 5.629 1.589C6.11433 2.04833 6.357 2.65933 6.357 3.422V7.478C6.357 8.24067 6.11433 8.85167 5.629 9.311C5.15233 9.77033 4.511 10 3.705 10H1.066ZM2.184 8.869C2.184 8.90367 2.20133 8.921 2.236 8.921L3.731 8.908C4.147 8.908 4.47633 8.76933 4.719 8.492C4.97033 8.206 5.10033 7.82467 5.109 7.348V3.552C5.109 3.06667 4.98333 2.68533 4.732 2.408C4.48067 2.122 4.14267 1.979 3.718 1.979H2.236C2.20133 1.979 2.184 1.99633 2.184 2.031V8.869ZM10.1139 3.279C10.8332 3.279 11.4096 3.48267 11.8429 3.89C12.2762 4.28867 12.4929 4.813 12.4929 5.463V9.87C12.4929 9.95667 12.4496 10 12.3629 10H11.3749C11.2882 10 11.2449 9.95667 11.2449 9.87V9.493C11.2449 9.47567 11.2362 9.467 11.2189 9.467C11.2102 9.45833 11.1972 9.46267 11.1799 9.48C10.7899 9.896 10.2482 10.104 9.5549 10.104C8.99157 10.104 8.51057 9.95233 8.1119 9.649C7.71323 9.337 7.5139 8.83867 7.5139 8.154C7.5139 7.44333 7.74357 6.906 8.2029 6.542C8.6709 6.16933 9.30357 5.983 10.1009 5.983H11.1929C11.2276 5.983 11.2449 5.96567 11.2449 5.931V5.567C11.2449 5.19433 11.1452 4.89967 10.9459 4.683C10.7552 4.46633 10.4779 4.358 10.1139 4.358C9.8279 4.358 9.58957 4.43167 9.3989 4.579C9.2169 4.71767 9.10423 4.90833 9.0609 5.151C9.05223 5.229 9.00457 5.268 8.9179 5.268L7.8519 5.203C7.81723 5.203 7.7869 5.19433 7.7609 5.177C7.7349 5.151 7.72623 5.12067 7.7349 5.086C7.7869 4.54867 8.02957 4.11533 8.4629 3.786C8.9049 3.448 9.45523 3.279 10.1139 3.279ZM9.8279 9.038C10.2092 9.038 10.5386 8.92967 10.8159 8.713C11.1019 8.49633 11.2449 8.206 11.2449 7.842V7.01C11.2449 6.97533 11.2276 6.958 11.1929 6.958H10.1919C9.76723 6.958 9.4249 7.05333 9.1649 7.244C8.91357 7.43467 8.7879 7.712 8.7879 8.076C8.7879 8.39667 8.88323 8.63933 9.0739 8.804C9.26457 8.96 9.5159 9.038 9.8279 9.038ZM16.753 3.292C17.3857 3.292 17.8754 3.487 18.222 3.877C18.5774 4.267 18.755 4.80433 18.755 5.489V9.87C18.755 9.95667 18.7117 10 18.625 10H17.637C17.5504 10 17.507 9.95667 17.507 9.87V5.671C17.507 5.27233 17.403 4.956 17.195 4.722C16.9957 4.488 16.7227 4.371 16.376 4.371C16.0207 4.371 15.7347 4.49233 15.518 4.735C15.31 4.969 15.206 5.28533 15.206 5.684V9.87C15.206 9.95667 15.1627 10 15.076 10H14.088C14.0014 10 13.958 9.95667 13.958 9.87V3.513C13.958 3.42633 14.0014 3.383 14.088 3.383H15.076C15.1627 3.383 15.206 3.42633 15.206 3.513V3.916C15.206 3.942 15.2104 3.95933 15.219 3.968C15.2364 3.968 15.2537 3.955 15.271 3.929C15.609 3.50433 16.103 3.292 16.753 3.292ZM21.021 2.343C20.7783 2.343 20.579 2.265 20.423 2.109C20.267 1.953 20.189 1.75367 20.189 1.511C20.189 1.25967 20.267 1.06033 20.423 0.912999C20.579 0.757 20.7783 0.679 21.021 0.679C21.2637 0.679 21.463 0.757 21.619 0.912999C21.775 1.069 21.853 1.26833 21.853 1.511C21.853 1.75367 21.7707 1.953 21.606 2.109C21.45 2.265 21.255 2.343 21.021 2.343ZM20.514 10C20.4273 10 20.384 9.95667 20.384 9.87V3.513C20.384 3.42633 20.4273 3.383 20.514 3.383H21.502C21.5887 3.383 21.632 3.42633 21.632 3.513V9.87C21.632 9.95667 21.5887 10 21.502 10H20.514ZM25.7322 9.025C26.0268 9.025 26.2738 8.95567 26.4732 8.817C26.6812 8.66967 26.8372 8.47033 26.9412 8.219C26.9672 8.141 27.0192 8.11067 27.0972 8.128L27.9812 8.323C28.0678 8.349 28.0982 8.401 28.0722 8.479C27.9075 8.99033 27.6215 9.389 27.2142 9.675C26.8068 9.961 26.3085 10.104 25.7192 10.104C25.0432 10.104 24.4972 9.935 24.0812 9.597C23.6652 9.259 23.4008 8.79533 23.2882 8.206C23.2448 7.96333 23.2145 7.70767 23.1972 7.439C23.1885 7.16167 23.1842 6.79767 23.1842 6.347C23.1842 5.905 23.2058 5.554 23.2492 5.294C23.3272 4.68733 23.5828 4.202 24.0162 3.838C24.4495 3.46533 24.9955 3.279 25.6542 3.279C26.3735 3.279 26.9542 3.48267 27.3962 3.89C27.8382 4.29733 28.0852 4.83467 28.1372 5.502C28.1632 5.79667 28.1762 6.33833 28.1762 7.127C28.1762 7.21367 28.1328 7.257 28.0462 7.257H24.4842C24.4495 7.257 24.4322 7.27433 24.4322 7.309C24.4322 7.55167 24.4452 7.764 24.4712 7.946C24.5145 8.26667 24.6488 8.52667 24.8742 8.726C25.0995 8.92533 25.3855 9.025 25.7322 9.025ZM25.6672 4.358C25.3378 4.358 25.0648 4.45767 24.8482 4.657C24.6402 4.85633 24.5145 5.11633 24.4712 5.437C24.4452 5.671 24.4322 5.92667 24.4322 6.204C24.4322 6.23867 24.4495 6.256 24.4842 6.256H26.8762C26.9108 6.256 26.9282 6.23867 26.9282 6.204C26.9108 5.85733 26.8935 5.606 26.8762 5.45C26.8328 5.12933 26.7028 4.86933 26.4862 4.67C26.2695 4.462 25.9965 4.358 25.6672 4.358ZM29.6392 10C29.5525 10 29.5092 9.95667 29.5092 9.87V1.03C29.5092 0.943333 29.5525 0.899999 29.6392 0.899999H30.6272C30.7139 0.899999 30.7572 0.943333 30.7572 1.03V9.87C30.7572 9.95667 30.7139 10 30.6272 10H29.6392ZM37.5963 10.104C37.0503 10.104 36.565 9.99567 36.1403 9.779C35.7243 9.55367 35.3993 9.24167 35.1653 8.843C34.94 8.43567 34.8273 7.96767 34.8273 7.439V3.448C34.8273 2.642 35.0786 2.00067 35.5813 1.524C36.0926 1.03867 36.7643 0.796 37.5963 0.796C38.4283 0.796 39.0956 1.03433 39.5983 1.511C40.101 1.98767 40.3523 2.62033 40.3523 3.409V3.513C40.3523 3.55633 40.3393 3.591 40.3133 3.617C40.2873 3.643 40.257 3.656 40.2223 3.656L39.2343 3.708C39.1476 3.708 39.1043 3.66467 39.1043 3.578V3.383C39.1043 2.93233 38.9656 2.56833 38.6883 2.291C38.411 2.01367 38.047 1.875 37.5963 1.875C37.1456 1.875 36.7773 2.01367 36.4913 2.291C36.214 2.56833 36.0753 2.93233 36.0753 3.383V7.517C36.0753 7.96767 36.214 8.33167 36.4913 8.609C36.7773 8.88633 37.1456 9.025 37.5963 9.025C38.047 9.025 38.411 8.88633 38.6883 8.609C38.9656 8.33167 39.1043 7.96767 39.1043 7.517V7.335C39.1043 7.24833 39.1476 7.205 39.2343 7.205L40.2223 7.257C40.309 7.257 40.3523 7.30033 40.3523 7.387V7.478C40.3523 7.998 40.2353 8.45733 40.0013 8.856C39.776 9.25467 39.4553 9.56233 39.0393 9.779C38.6233 9.99567 38.1423 10.104 37.5963 10.104ZM41.9029 10C41.8162 10 41.7729 9.95667 41.7729 9.87V1.03C41.7729 0.943333 41.8162 0.899999 41.9029 0.899999H42.8909C42.9775 0.899999 43.0209 0.943333 43.0209 1.03V9.87C43.0209 9.95667 42.9775 10 42.8909 10H41.9029ZM45.2944 2.343C45.0518 2.343 44.8524 2.265 44.6964 2.109C44.5404 1.953 44.4624 1.75367 44.4624 1.511C44.4624 1.25967 44.5404 1.06033 44.6964 0.912999C44.8524 0.757 45.0518 0.679 45.2944 0.679C45.5371 0.679 45.7364 0.757 45.8924 0.912999C46.0484 1.069 46.1264 1.26833 46.1264 1.511C46.1264 1.75367 46.0441 1.953 45.8794 2.109C45.7234 2.265 45.5284 2.343 45.2944 2.343ZM44.7874 10C44.7008 10 44.6574 9.95667 44.6574 9.87V3.513C44.6574 3.42633 44.7008 3.383 44.7874 3.383H45.7754C45.8621 3.383 45.9054 3.42633 45.9054 3.513V9.87C45.9054 9.95667 45.8621 10 45.7754 10H44.7874ZM50.2396 1.94C49.8843 1.94 49.633 2.031 49.4856 2.213C49.347 2.38633 49.2776 2.68533 49.2776 3.11V3.331C49.2776 3.36567 49.295 3.383 49.3296 3.383H50.4606C50.5473 3.383 50.5906 3.42633 50.5906 3.513V4.28C50.5906 4.36667 50.5473 4.41 50.4606 4.41H49.3296C49.295 4.41 49.2776 4.42733 49.2776 4.462V9.87C49.2776 9.95667 49.2343 10 49.1476 10H48.1596C48.073 10 48.0296 9.95667 48.0296 9.87V4.462C48.0296 4.42733 48.0123 4.41 47.9776 4.41H47.3016C47.215 4.41 47.1716 4.36667 47.1716 4.28V3.513C47.1716 3.42633 47.215 3.383 47.3016 3.383H47.9776C48.0123 3.383 48.0296 3.36567 48.0296 3.331V3.045C48.0296 2.499 48.099 2.07 48.2376 1.758C48.3763 1.43733 48.5973 1.20767 48.9006 1.069C49.2126 0.930333 49.6373 0.861 50.1746 0.861H50.4736C50.5603 0.861 50.6036 0.904333 50.6036 0.991L50.5906 1.81C50.5906 1.89667 50.5473 1.94 50.4606 1.94H50.2396ZM54.4799 1.94C54.1245 1.94 53.8732 2.031 53.7259 2.213C53.5872 2.38633 53.5179 2.68533 53.5179 3.11V3.331C53.5179 3.36567 53.5352 3.383 53.5699 3.383H54.7009C54.7875 3.383 54.8309 3.42633 54.8309 3.513V4.28C54.8309 4.36667 54.7875 4.41 54.7009 4.41H53.5699C53.5352 4.41 53.5179 4.42733 53.5179 4.462V9.87C53.5179 9.95667 53.4745 10 53.3879 10H52.3999C52.3132 10 52.2699 9.95667 52.2699 9.87V4.462C52.2699 4.42733 52.2525 4.41 52.2179 4.41H51.5419C51.4552 4.41 51.4119 4.36667 51.4119 4.28V3.513C51.4119 3.42633 51.4552 3.383 51.5419 3.383H52.2179C52.2525 3.383 52.2699 3.36567 52.2699 3.331V3.045C52.2699 2.499 52.3392 2.07 52.4779 1.758C52.6165 1.43733 52.8375 1.20767 53.1409 1.069C53.4529 0.930333 53.8775 0.861 54.4149 0.861H54.7139C54.8005 0.861 54.8439 0.904333 54.8439 0.991L54.8309 1.81C54.8309 1.89667 54.7875 1.94 54.7009 1.94H54.4799ZM58.1938 10.104C57.5178 10.104 56.9631 9.93067 56.5298 9.584C56.0965 9.22867 55.8365 8.74767 55.7498 8.141C55.6805 7.70767 55.6458 7.22233 55.6458 6.685C55.6458 6.139 55.6805 5.658 55.7498 5.242C55.8365 4.644 56.0965 4.16733 56.5298 3.812C56.9631 3.45667 57.5178 3.279 58.1938 3.279C58.8611 3.279 59.4115 3.45667 59.8448 3.812C60.2781 4.16733 60.5381 4.63967 60.6248 5.229C60.6941 5.60167 60.7288 6.087 60.7288 6.685C60.7288 7.283 60.6941 7.76833 60.6248 8.141C60.5381 8.74767 60.2781 9.22867 59.8448 9.584C59.4201 9.93067 58.8698 10.104 58.1938 10.104ZM58.1938 9.025C58.5145 9.025 58.7831 8.92533 58.9998 8.726C59.2251 8.52667 59.3638 8.26233 59.4158 7.933C59.4591 7.543 59.4808 7.127 59.4808 6.685C59.4808 6.23433 59.4591 5.82267 59.4158 5.45C59.3638 5.12067 59.2251 4.85633 58.9998 4.657C58.7831 4.45767 58.5101 4.358 58.1808 4.358C57.8601 4.358 57.5871 4.45767 57.3618 4.657C57.1451 4.85633 57.0108 5.12067 56.9588 5.45C56.9241 5.75333 56.9068 6.165 56.9068 6.685C56.9068 7.21367 56.9241 7.62967 56.9588 7.933C57.0108 8.26233 57.1451 8.52667 57.3618 8.726C57.5871 8.92533 57.8645 9.025 58.1938 9.025ZM64.9178 3.318C65.1778 3.318 65.3988 3.37 65.5808 3.474C65.6415 3.5 65.6632 3.552 65.6458 3.63L65.4508 4.618C65.4422 4.70467 65.3902 4.73067 65.2948 4.696C65.1648 4.65267 65.0218 4.631 64.8658 4.631C64.7532 4.631 64.6708 4.63533 64.6188 4.644C64.2808 4.67 63.9992 4.826 63.7738 5.112C63.5485 5.38933 63.4358 5.723 63.4358 6.113V9.87C63.4358 9.95667 63.3925 10 63.3058 10H62.3178C62.2312 10 62.1878 9.95667 62.1878 9.87V3.513C62.1878 3.42633 62.2312 3.383 62.3178 3.383H63.3058C63.3925 3.383 63.4358 3.42633 63.4358 3.513V4.345C63.4358 4.371 63.4402 4.38833 63.4488 4.397C63.4662 4.397 63.4792 4.38833 63.4878 4.371C63.7998 3.669 64.2765 3.318 64.9178 3.318ZM70.0656 1.03C70.0656 0.943333 70.109 0.899999 70.1956 0.899999H71.1836C71.2703 0.899999 71.3136 0.943333 71.3136 1.03V9.87C71.3136 9.95667 71.2703 10 71.1836 10H70.1956C70.109 10 70.0656 9.95667 70.0656 9.87V9.428C70.0656 9.41067 70.057 9.39767 70.0396 9.389C70.0223 9.38033 70.0093 9.38467 70.0006 9.402C69.6886 9.87 69.199 10.104 68.5316 10.104C67.9943 10.104 67.561 9.948 67.2316 9.636C66.9023 9.324 66.6596 8.843 66.5036 8.193C66.3996 7.74233 66.3476 7.24833 66.3476 6.711C66.3476 6.15633 66.391 5.66233 66.4776 5.229C66.7376 3.929 67.444 3.279 68.5966 3.279C68.9346 3.279 69.2163 3.33533 69.4416 3.448C69.667 3.56067 69.8533 3.72967 70.0006 3.955C70.018 3.97233 70.031 3.981 70.0396 3.981C70.057 3.981 70.0656 3.968 70.0656 3.942V1.03ZM69.8836 8.154C69.9963 7.80733 70.0526 7.31767 70.0526 6.685C70.0526 6.035 69.992 5.541 69.8706 5.203C69.7926 4.92567 69.6713 4.71767 69.5066 4.579C69.3506 4.43167 69.1426 4.358 68.8826 4.358C68.3713 4.358 68.016 4.631 67.8166 5.177C67.678 5.567 67.6086 6.06967 67.6086 6.685C67.6086 7.309 67.665 7.79 67.7776 8.128C67.9596 8.726 68.3236 9.025 68.8696 9.025C69.3723 9.025 69.7103 8.73467 69.8836 8.154Z" fill="white"/>
</svg>
